# xmcd CD database file
# Copyright (C) 1997 Ti Kan
# 
# Track frame offsets:
#     150
#     11910
#     21540
#     30875
#     44327
#     54892
#     63302
#     74682
#     85487
#     94562
#     105287
#     117512
#     129142
#     134997
#     144865
#     156667
# 
# Disc length: 2260 seconds
# 
# Revision: 1
# Processed by: cddbd v1.4b41PL1 Copyright (c) Steve Scherf et al.
# Submitted via: DiscPlay 4.0.2
# 
DISCID=de08d210
DTITLE=JIM REEVES - REMEMBERING
DYEAR=1900
DGENRE=
TTITLE0=I LOVE YOU BECAUSE
TTITLE1=I WONT COME IN WHILE HES THERE
TTITLE2=THERE A HEARTACHE FOLLOWING ME
TTITLE3=HAVE YOU EVER BEEN LONELY ( HAVE YOU EVER BEEN BLUE)
TTITLE4=YOURE THE ONLY GOOD THING
TTITLE5=FORM JACK TO A KING
TTITLE6=ADIOS AMIGO
TTITLE7=HE'LL HAVE TO GO
TTITLE8=I WON'T FORGET YOU
TTITLE9=I CAN'T STOP LOVING YOU
TTITLE10=NOBODY'S FOOL
TTITLE11=MONA LISA
TTITLE12=TENNESSEE WALTZ
TTITLE13=A FOOL SUCH AS I
TTITLE14=MISSING YOU
TTITLE15=DISTANT DRUMS
EXTD=
EXTT0=
EXTT1=
EXTT2=
EXTT3=
EXTT4=
EXTT5=
EXTT6=
EXTT7=
EXTT8=
EXTT9=
EXTT10=
EXTT11=
EXTT12=
EXTT13=
EXTT14=
EXTT15=
PLAYORDER=
